+ filenameToUse=/home/horvathandras/vatic/vatic/public/videouploads/DJI_0025_30m_szeldontes_vadvalto_arpa_homokmegy_20180603_napos_kalaszos_T4.avi
+ filenameNoDot=DJI_0025_30m_szeldontes_vadvalto_arpa_homokmegy_20180603_napos_kalaszos_T4
+ FullUploadPath=/home/horvathandras/vatic/vatic/public/videouploads/DJI_0025_30m_szeldontes_vadvalto_arpa_homokmegy_20180603_napos_kalaszos_T4.avi
+ VideoDataDir=/home/horvathandras/vatic/vatic/videos
+ AvailableObjectTypes='PozitívROI NegatívROI Túrás ~Friss ~1-2Hetes ~Régebbi ~Egyéb1 ~Egyéb2 ~Egyéb3 Rágás ~Friss ~1-2Hetes ~Régebbi ~Egyéb1 ~Egyéb2 ~Egyéb3 Törés ~Friss ~1-2Hetes ~Régebbi ~Egyéb1 ~Egyéb2 ~Egyéb3 Taposás ~Friss ~1-2Hetes ~Régebbi ~Egyéb1 ~Egyéb2 ~Egyéb3 EgészségesNövény Egyéb1 Egyéb2 Egyéb3 Egyéb4 Egyéb5 Bizonytalan Művelőút Gktaposás Vetőhiba Széldöntés Jégkár Belvíz Aszály Erózió EgyszikűGyom KétszikűGyom EgyébNövvédelmiPR'
++ dirname /home/horvathandras/vatic/vatic/vatic_publisher.sh
+ cd /home/horvathandras/vatic/vatic
+ touch /home/horvathandras/vatic/vatic/public/videouploads/DJI_0025_30m_szeldontes_vadvalto_arpa_homokmegy_20180603_napos_kalaszos_T4.avi
+ chmod 744 /home/horvathandras/vatic/vatic/public/videouploads/DJI_0025_30m_szeldontes_vadvalto_arpa_homokmegy_20180603_napos_kalaszos_T4.avi
+ mkdir /home/horvathandras/vatic/vatic/videos/DJI_0025_30m_szeldontes_vadvalto_arpa_homokmegy_20180603_napos_kalaszos_T4
+ turkic extract /home/horvathandras/vatic/vatic/public/videouploads/DJI_0025_30m_szeldontes_vadvalto_arpa_homokmegy_20180603_napos_kalaszos_T4.avi /home/horvathandras/vatic/vatic/videos/DJI_0025_30m_szeldontes_vadvalto_arpa_homokmegy_20180603_napos_kalaszos_T4 --no-resize
ffmpeg version 2.8.14-0ubuntu0.16.04.1 Copyright (c) 2000-2018 the FFmpeg developers
  built with gcc 5.4.0 (Ubuntu 5.4.0-6ubuntu1~16.04.9) 20160609
  configuration: --prefix=/usr --extra-version=0ubuntu0.16.04.1 --build-suffix=-ffmpeg --toolchain=hardened --libdir=/usr/lib/x86_64-linux-gnu --incdir=/usr/include/x86_64-linux-gnu --cc=cc --cxx=g++ --enable-gpl --enable-shared --disable-stripping --disable-decoder=libopenjpeg --disable-decoder=libschroedinger --enable-avresample --enable-avisynth --enable-gnutls --enable-ladspa --enable-libass --enable-libbluray --enable-libbs2b --enable-libcaca --enable-libcdio --enable-libflite --enable-libfontconfig --enable-libfreetype --enable-libfribidi --enable-libgme --enable-libgsm --enable-libmodplug --enable-libmp3lame --enable-libopenjpeg --enable-libopus --enable-libpulse --enable-librtmp --enable-libschroedinger --enable-libshine --enable-libsnappy --enable-libsoxr --enable-libspeex --enable-libssh --enable-libtheora --enable-libtwolame --enable-libvorbis --enable-libvpx --enable-libwavpack --enable-libwebp --enable-libx265 --enable-libxvid --enable-libzvbi --enable-openal --enable-opengl --enable-x11grab --enable-libdc1394 --enable-libiec61883 --enable-libzmq --enable-frei0r --enable-libx264 --enable-libopencv
  libavutil      54. 31.100 / 54. 31.100
  libavcodec     56. 60.100 / 56. 60.100
  libavformat    56. 40.101 / 56. 40.101
  libavdevice    56.  4.100 / 56.  4.100
  libavfilter     5. 40.101 /  5. 40.101
  libavresample   2.  1.  0 /  2.  1.  0
  libswscale      3.  1.101 /  3.  1.101
  libswresample   1.  2.101 /  1.  2.101
  libpostproc    53.  3.100 / 53.  3.100
Input #0, mov,mp4,m4a,3gp,3g2,mj2, from '/home/horvathandras/vatic/vatic/public/videouploads/DJI_0025_30m_szeldontes_vadvalto_arpa_homokmegy_20180603_napos_kalaszos_T4.avi':
  Metadata:
    major_brand     : qt  
    minor_version   : 537986816
    compatible_brands: qt  
    creation_time   : 2018-06-03 08:06:22
    location        : +46.516242+19.136458+30.300
    location-{    : +46.516242+19.136458+30.300
    comment         : DE=None, Mode=P, DSW=0001
  Duration: 00:00:20.82, start: 0.000000, bitrate: 100989 kb/s
    Stream #0:0(eng): Video: h264 (High) (avc1 / 0x31637661), yuv420p(tv, bt709), 4096x2160 [SAR 1:1 DAR 256:135], 100783 kb/s, 50 fps, 50 tbr, 50k tbn, 100 tbc (default)
    Metadata:
      creation_time   : 2018-06-03 08:06:22
      handler_name    : DJI.AVC
      encoder         : AVC encoder
    Stream #0:1(eng): Data: none (priv / 0x76697270), 190 kb/s
    Metadata:
      creation_time   : 2018-06-03 08:06:22
      handler_name    : DJI.Meta
Please use -b:a or -b:v, -b is ambiguous
[swscaler @ 0x26b95c0] deprecated pixel format used, make sure you did set range correctly
Output #0, image2, to '/tmp/pyvision-ffmpeg-58013001/%d.jpg':
  Metadata:
    major_brand     : qt  
    minor_version   : 537986816
    compatible_brands: qt  
    comment         : DE=None, Mode=P, DSW=0001
    location        : +46.516242+19.136458+30.300
    location-{    : +46.516242+19.136458+30.300
    encoder         : Lavf56.40.101
    Stream #0:0(eng): Video: mjpeg, yuvj420p(pc), 4096x2160 [SAR 1:1 DAR 256:135], q=2-31, 10000 kb/s, 50 fps, 50 tbn, 50 tbc (default)
    Metadata:
      creation_time   : 2018-06-03 08:06:22
      handler_name    : DJI.AVC
      encoder         : Lavc56.60.100 mjpeg
Stream mapping:
  Stream #0:0 -> #0:0 (h264 (native) -> mjpeg (native))
Press [q] to stop, [?] for help
frame=    1 fps=0.0 q=19.7 size=N/A time=00:00:00.02 bitrate=N/A    frame=    4 fps=2.7 q=24.8 size=N/A time=00:00:00.08 bitrate=N/A    frame=    8 fps=3.8 q=24.8 size=N/A time=00:00:00.16 bitrate=N/A    frame=   12 fps=4.4 q=24.8 size=N/A time=00:00:00.24 bitrate=N/A    frame=   16 fps=4.8 q=24.8 size=N/A time=00:00:00.32 bitrate=N/A    frame=   20 fps=4.9 q=24.8 size=N/A time=00:00:00.40 bitrate=N/A    frame=   24 fps=5.2 q=24.8 size=N/A time=00:00:00.48 bitrate=N/A    frame=   28 fps=5.4 q=24.8 size=N/A time=00:00:00.56 bitrate=N/A    frame=   31 fps=5.3 q=24.8 size=N/A time=00:00:00.62 bitrate=N/A    frame=   36 fps=5.6 q=24.8 size=N/A time=00:00:00.72 bitrate=N/A    frame=   40 fps=5.7 q=24.8 size=N/A time=00:00:00.80 bitrate=N/A    frame=   44 fps=5.8 q=24.8 size=N/A time=00:00:00.88 bitrate=N/A    frame=   48 fps=5.9 q=24.8 size=N/A time=00:00:00.96 bitrate=N/A    frame=   51 fps=5.9 q=24.8 size=N/A time=00:00:01.02 bitrate=N/A    frame=   54 fps=5.9 q=24.8 size=N/A time=00:00:01.08 bitrate=N/A    frame=   57 fps=5.8 q=24.8 size=N/A time=00:00:01.14 bitrate=N/A    frame=   61 fps=5.9 q=24.8 size=N/A time=00:00:01.22 bitrate=N/A    frame=   65 fps=6.0 q=24.8 size=N/A time=00:00:01.30 bitrate=N/A    frame=   68 fps=6.0 q=24.8 size=N/A time=00:00:01.36 bitrate=N/A    frame=   73 fps=6.0 q=24.8 size=N/A time=00:00:01.46 bitrate=N/A    frame=   77 fps=6.1 q=24.8 size=N/A time=00:00:01.54 bitrate=N/A    frame=   81 fps=6.1 q=24.8 size=N/A time=00:00:01.62 bitrate=N/A    frame=   85 fps=6.1 q=24.8 size=N/A time=00:00:01.70 bitrate=N/A    frame=   88 fps=6.1 q=24.8 size=N/A time=00:00:01.76 bitrate=N/A    frame=   92 fps=6.1 q=24.8 size=N/A time=00:00:01.84 bitrate=N/A    frame=   96 fps=6.1 q=24.8 size=N/A time=00:00:01.92 bitrate=N/A    frame=  100 fps=6.1 q=24.8 size=N/A time=00:00:02.00 bitrate=N/A    frame=  104 fps=6.1 q=24.8 size=N/A time=00:00:02.08 bitrate=N/A    frame=  108 fps=6.2 q=24.8 size=N/A time=00:00:02.16 bitrate=N/A    frame=  112 fps=6.2 q=24.8 size=N/A time=00:00:02.24 bitrate=N/A    frame=  116 fps=6.2 q=24.8 size=N/A time=00:00:02.32 bitrate=N/A    frame=  120 fps=6.2 q=24.8 size=N/A time=00:00:02.40 bitrate=N/A    frame=  124 fps=6.2 q=24.8 size=N/A time=00:00:02.48 bitrate=N/A    frame=  128 fps=6.2 q=24.8 size=N/A time=00:00:02.56 bitrate=N/A    frame=  132 fps=6.2 q=24.8 size=N/A time=00:00:02.64 bitrate=N/A    frame=  136 fps=6.2 q=24.8 size=N/A time=00:00:02.72 bitrate=N/A    frame=  140 fps=6.3 q=24.8 size=N/A time=00:00:02.80 bitrate=N/A    frame=  144 fps=6.2 q=24.8 size=N/A time=00:00:02.88 bitrate=N/A    frame=  148 fps=6.3 q=24.8 size=N/A time=00:00:02.96 bitrate=N/A    frame=  151 fps=6.2 q=24.8 size=N/A time=00:00:03.02 bitrate=N/A    frame=  155 fps=6.2 q=24.8 size=N/A time=00:00:03.10 bitrate=N/A    frame=  159 fps=6.2 q=24.8 size=N/A time=00:00:03.18 bitrate=N/A    frame=  163 fps=6.2 q=24.8 size=N/A time=00:00:03.26 bitrate=N/A    frame=  167 fps=6.2 q=24.8 size=N/A time=00:00:03.34 bitrate=N/A    frame=  171 fps=6.3 q=24.8 size=N/A time=00:00:03.42 bitrate=N/A    frame=  174 fps=6.3 q=24.8 size=N/A time=00:00:03.48 bitrate=N/A    frame=  178 fps=6.3 q=24.8 size=N/A time=00:00:03.56 bitrate=N/A    frame=  181 fps=6.3 q=24.8 size=N/A time=00:00:03.62 bitrate=N/A    frame=  185 fps=6.3 q=24.8 size=N/A time=00:00:03.70 bitrate=N/A    frame=  189 fps=6.3 q=24.8 size=N/A time=00:00:03.78 bitrate=N/A    frame=  193 fps=6.3 q=24.8 size=N/A time=00:00:03.86 bitrate=N/A    frame=  197 fps=6.3 q=24.8 size=N/A time=00:00:03.94 bitrate=N/A    frame=  201 fps=6.3 q=24.8 size=N/A time=00:00:04.02 bitrate=N/A    frame=  205 fps=6.3 q=24.8 size=N/A time=00:00:04.10 bitrate=N/A    frame=  208 fps=6.3 q=24.8 size=N/A time=00:00:04.16 bitrate=N/A    frame=  212 fps=6.3 q=24.8 size=N/A time=00:00:04.24 bitrate=N/A    frame=  216 fps=6.3 q=24.8 size=N/A time=00:00:04.32 bitrate=N/A    frame=  219 fps=6.3 q=24.8 size=N/A time=00:00:04.38 bitrate=N/A    frame=  223 fps=6.3 q=24.8 size=N/A time=00:00:04.46 bitrate=N/A    frame=  226 fps=6.3 q=24.8 size=N/A time=00:00:04.52 bitrate=N/A    frame=  230 fps=6.3 q=24.8 size=N/A time=00:00:04.60 bitrate=N/A    frame=  234 fps=6.3 q=24.8 size=N/A time=00:00:04.68 bitrate=N/A    frame=  237 fps=6.3 q=24.8 size=N/A time=00:00:04.74 bitrate=N/A    frame=  241 fps=6.3 q=24.8 size=N/A time=00:00:04.82 bitrate=N/A    frame=  245 fps=6.3 q=24.8 size=N/A time=00:00:04.90 bitrate=N/A    frame=  249 fps=6.3 q=24.8 size=N/A time=00:00:04.98 bitrate=N/A    frame=  253 fps=6.3 q=24.8 size=N/A time=00:00:05.06 bitrate=N/A    frame=  257 fps=6.3 q=24.8 size=N/A time=00:00:05.14 bitrate=N/A    frame=  261 fps=6.3 q=24.8 size=N/A time=00:00:05.22 bitrate=N/A    frame=  265 fps=6.3 q=24.8 size=N/A time=00:00:05.30 bitrate=N/A    frame=  269 fps=6.3 q=24.8 size=N/A time=00:00:05.38 bitrate=N/A    frame=  273 fps=6.3 q=24.8 size=N/A time=00:00:05.46 bitrate=N/A    frame=  277 fps=6.3 q=24.8 size=N/A time=00:00:05.54 bitrate=N/A    frame=  281 fps=6.3 q=24.8 size=N/A time=00:00:05.62 bitrate=N/A    frame=  285 fps=6.3 q=24.8 size=N/A time=00:00:05.70 bitrate=N/A    frame=  289 fps=6.3 q=24.8 size=N/A time=00:00:05.78 bitrate=N/A    frame=  292 fps=6.3 q=24.8 size=N/A time=00:00:05.84 bitrate=N/A    frame=  296 fps=6.3 q=24.8 size=N/A time=00:00:05.92 bitrate=N/A    frame=  300 fps=6.3 q=24.8 size=N/A time=00:00:06.00 bitrate=N/A    frame=  304 fps=6.3 q=24.8 size=N/A time=00:00:06.08 bitrate=N/A    frame=  308 fps=6.3 q=24.8 size=N/A time=00:00:06.16 bitrate=N/A    frame=  312 fps=6.3 q=24.8 size=N/A time=00:00:06.24 bitrate=N/A    frame=  316 fps=6.4 q=24.8 size=N/A time=00:00:06.32 bitrate=N/A    frame=  320 fps=6.4 q=24.8 size=N/A time=00:00:06.40 bitrate=N/A    frame=  324 fps=6.4 q=24.8 size=N/A time=00:00:06.48 bitrate=N/A    frame=  327 fps=6.4 q=24.8 size=N/A time=00:00:06.54 bitrate=N/A    frame=  330 fps=6.3 q=24.8 size=N/A time=00:00:06.60 bitrate=N/A    frame=  334 fps=6.3 q=24.8 size=N/A time=00:00:06.68 bitrate=N/A    frame=  338 fps=6.4 q=24.8 size=N/A time=00:00:06.76 bitrate=N/A    frame=  342 fps=6.4 q=24.8 size=N/A time=00:00:06.84 bitrate=N/A    frame=  346 fps=6.4 q=24.8 size=N/A time=00:00:06.92 bitrate=N/A    frame=  350 fps=6.4 q=24.8 size=N/A time=00:00:07.00 bitrate=N/A    frame=  354 fps=6.4 q=24.8 size=N/A time=00:00:07.08 bitrate=N/A    frame=  358 fps=6.4 q=24.8 size=N/A time=00:00:07.16 bitrate=N/A    frame=  362 fps=6.4 q=24.8 size=N/A time=00:00:07.24 bitrate=N/A    frame=  366 fps=6.4 q=24.8 size=N/A time=00:00:07.32 bitrate=N/A    frame=  369 fps=6.4 q=24.8 size=N/A time=00:00:07.38 bitrate=N/A    frame=  373 fps=6.4 q=24.8 size=N/A time=00:00:07.46 bitrate=N/A    frame=  377 fps=6.4 q=24.8 size=N/A time=00:00:07.54 bitrate=N/A    frame=  380 fps=6.4 q=24.8 size=N/A time=00:00:07.60 bitrate=N/A    frame=  384 fps=6.4 q=24.8 size=N/A time=00:00:07.68 bitrate=N/A    frame=  387 fps=6.4 q=24.8 size=N/A time=00:00:07.74 bitrate=N/A    frame=  390 fps=6.4 q=24.8 size=N/A time=00:00:07.80 bitrate=N/A    frame=  394 fps=6.4 q=24.8 size=N/A time=00:00:07.88 bitrate=N/A    frame=  398 fps=6.4 q=24.8 size=N/A time=00:00:07.96 bitrate=N/A    frame=  402 fps=6.4 q=24.8 size=N/A time=00:00:08.04 bitrate=N/A    frame=  406 fps=6.4 q=24.8 size=N/A time=00:00:08.12 bitrate=N/A    frame=  410 fps=6.4 q=24.8 size=N/A time=00:00:08.20 bitrate=N/A    frame=  414 fps=6.4 q=24.8 size=N/A time=00:00:08.28 bitrate=N/A    frame=  417 fps=6.4 q=24.8 size=N/A time=00:00:08.34 bitrate=N/A    frame=  421 fps=6.4 q=24.8 size=N/A time=00:00:08.42 bitrate=N/A    frame=  425 fps=6.4 q=24.8 size=N/A time=00:00:08.50 bitrate=N/A    frame=  429 fps=6.4 q=24.8 size=N/A time=00:00:08.58 bitrate=N/A    frame=  433 fps=6.4 q=24.8 size=N/A time=00:00:08.66 bitrate=N/A    frame=  437 fps=6.4 q=24.8 size=N/A time=00:00:08.74 bitrate=N/A    frame=  441 fps=6.4 q=24.8 size=N/A time=00:00:08.82 bitrate=N/A    frame=  444 fps=6.4 q=24.8 size=N/A time=00:00:08.88 bitrate=N/A    frame=  447 fps=6.4 q=24.8 size=N/A time=00:00:08.94 bitrate=N/A    frame=  450 fps=6.4 q=24.8 size=N/A time=00:00:09.00 bitrate=N/A    frame=  454 fps=6.4 q=24.8 size=N/A time=00:00:09.08 bitrate=N/A    frame=  458 fps=6.4 q=24.8 size=N/A time=00:00:09.16 bitrate=N/A    frame=  462 fps=6.4 q=24.8 size=N/A time=00:00:09.24 bitrate=N/A    frame=  466 fps=6.4 q=24.8 size=N/A time=00:00:09.32 bitrate=N/A    frame=  470 fps=6.4 q=24.8 size=N/A time=00:00:09.40 bitrate=N/A    frame=  474 fps=6.4 q=24.8 size=N/A time=00:00:09.48 bitrate=N/A    frame=  478 fps=6.4 q=24.8 size=N/A time=00:00:09.56 bitrate=N/A    frame=  482 fps=6.4 q=24.8 size=N/A time=00:00:09.64 bitrate=N/A    frame=  485 fps=6.4 q=24.8 size=N/A time=00:00:09.70 bitrate=N/A    frame=  489 fps=6.4 q=24.8 size=N/A time=00:00:09.78 bitrate=N/A    frame=  493 fps=6.4 q=24.8 size=N/A time=00:00:09.86 bitrate=N/A    frame=  497 fps=6.4 q=24.8 size=N/A time=00:00:09.94 bitrate=N/A    frame=  501 fps=6.4 q=24.8 size=N/A time=00:00:10.02 bitrate=N/A    frame=  505 fps=6.4 q=24.8 size=N/A time=00:00:10.10 bitrate=N/A    frame=  509 fps=6.4 q=24.8 size=N/A time=00:00:10.18 bitrate=N/A    frame=  512 fps=6.4 q=24.8 size=N/A time=00:00:10.24 bitrate=N/A    frame=  515 fps=6.4 q=24.8 size=N/A time=00:00:10.30 bitrate=N/A    frame=  519 fps=6.4 q=24.8 size=N/A time=00:00:10.38 bitrate=N/A    frame=  523 fps=6.4 q=24.8 size=N/A time=00:00:10.46 bitrate=N/A    frame=  527 fps=6.4 q=24.8 size=N/A time=00:00:10.54 bitrate=N/A    frame=  531 fps=6.4 q=24.8 size=N/A time=00:00:10.62 bitrate=N/A    frame=  535 fps=6.4 q=24.8 size=N/A time=00:00:10.70 bitrate=N/A    frame=  539 fps=6.4 q=24.8 size=N/A time=00:00:10.78 bitrate=N/A    frame=  543 fps=6.4 q=24.8 size=N/A time=00:00:10.86 bitrate=N/A    frame=  546 fps=6.4 q=24.8 size=N/A time=00:00:10.92 bitrate=N/A    frame=  550 fps=6.4 q=24.8 size=N/A time=00:00:11.00 bitrate=N/A    frame=  554 fps=6.4 q=24.8 size=N/A time=00:00:11.08 bitrate=N/A    frame=  558 fps=6.4 q=24.8 size=N/A time=00:00:11.16 bitrate=N/A    frame=  562 fps=6.4 q=24.8 size=N/A time=00:00:11.24 bitrate=N/A    frame=  566 fps=6.4 q=24.8 size=N/A time=00:00:11.32 bitrate=N/A    frame=  570 fps=6.4 q=24.8 size=N/A time=00:00:11.40 bitrate=N/A    frame=  574 fps=6.4 q=24.8 size=N/A time=00:00:11.48 bitrate=N/A    frame=  577 fps=6.4 q=24.8 size=N/A time=00:00:11.54 bitrate=N/A    frame=  581 fps=6.4 q=24.8 size=N/A time=00:00:11.62 bitrate=N/A    frame=  585 fps=6.4 q=24.8 size=N/A time=00:00:11.70 bitrate=N/A    frame=  589 fps=6.4 q=24.8 size=N/A time=00:00:11.78 bitrate=N/A    frame=  593 fps=6.4 q=24.8 size=N/A time=00:00:11.86 bitrate=N/A    frame=  596 fps=6.4 q=24.8 size=N/A time=00:00:11.92 bitrate=N/A    frame=  599 fps=6.4 q=24.8 size=N/A time=00:00:11.98 bitrate=N/A    frame=  603 fps=6.4 q=24.8 size=N/A time=00:00:12.06 bitrate=N/A    frame=  606 fps=6.4 q=24.8 size=N/A time=00:00:12.12 bitrate=N/A    frame=  610 fps=6.4 q=24.8 size=N/A time=00:00:12.20 bitrate=N/A    frame=  614 fps=6.4 q=24.8 size=N/A time=00:00:12.28 bitrate=N/A    frame=  618 fps=6.4 q=24.8 size=N/A time=00:00:12.36 bitrate=N/A    frame=  621 fps=6.4 q=24.8 size=N/A time=00:00:12.42 bitrate=N/A    frame=  624 fps=6.4 q=24.8 size=N/A time=00:00:12.48 bitrate=N/A    frame=  628 fps=6.4 q=24.8 size=N/A time=00:00:12.56 bitrate=N/A    frame=  631 fps=6.4 q=24.8 size=N/A time=00:00:12.62 bitrate=N/A    frame=  635 fps=6.4 q=24.8 size=N/A time=00:00:12.70 bitrate=N/A    frame=  639 fps=6.4 q=24.8 size=N/A time=00:00:12.78 bitrate=N/A    frame=  643 fps=6.4 q=24.8 size=N/A time=00:00:12.86 bitrate=N/A    frame=  647 fps=6.4 q=24.8 size=N/A time=00:00:12.94 bitrate=N/A    frame=  651 fps=6.4 q=24.8 size=N/A time=00:00:13.02 bitrate=N/A    frame=  655 fps=6.4 q=24.8 size=N/A time=00:00:13.10 bitrate=N/A    frame=  659 fps=6.4 q=24.8 size=N/A time=00:00:13.18 bitrate=N/A    frame=  662 fps=6.4 q=24.8 size=N/A time=00:00:13.24 bitrate=N/A    frame=  666 fps=6.4 q=24.8 size=N/A time=00:00:13.32 bitrate=N/A    frame=  669 fps=6.4 q=24.8 size=N/A time=00:00:13.38 bitrate=N/A    frame=  673 fps=6.4 q=24.8 size=N/A time=00:00:13.46 bitrate=N/A    frame=  677 fps=6.4 q=24.8 size=N/A time=00:00:13.54 bitrate=N/A    frame=  681 fps=6.4 q=24.8 size=N/A time=00:00:13.62 bitrate=N/A    frame=  685 fps=6.4 q=24.8 size=N/A time=00:00:13.70 bitrate=N/A    frame=  688 fps=6.4 q=24.8 size=N/A time=00:00:13.76 bitrate=N/A    frame=  691 fps=6.4 q=24.8 size=N/A time=00:00:13.82 bitrate=N/A    frame=  695 fps=6.4 q=24.8 size=N/A time=00:00:13.90 bitrate=N/A    frame=  699 fps=6.4 q=24.8 size=N/A time=00:00:13.98 bitrate=N/A    frame=  703 fps=6.4 q=24.8 size=N/A time=00:00:14.06 bitrate=N/A    frame=  707 fps=6.4 q=24.8 size=N/A time=00:00:14.14 bitrate=N/A    frame=  711 fps=6.4 q=24.8 size=N/A time=00:00:14.22 bitrate=N/A    frame=  715 fps=6.4 q=24.8 size=N/A time=00:00:14.30 bitrate=N/A    frame=  719 fps=6.4 q=24.8 size=N/A time=00:00:14.38 bitrate=N/A    frame=  723 fps=6.4 q=24.8 size=N/A time=00:00:14.46 bitrate=N/A    frame=  727 fps=6.4 q=24.8 size=N/A time=00:00:14.54 bitrate=N/A    frame=  731 fps=6.4 q=24.8 size=N/A time=00:00:14.62 bitrate=N/A    frame=  735 fps=6.4 q=24.8 size=N/A time=00:00:14.70 bitrate=N/A    frame=  739 fps=6.4 q=24.8 size=N/A time=00:00:14.78 bitrate=N/A    frame=  743 fps=6.4 q=24.8 size=N/A time=00:00:14.86 bitrate=N/A    frame=  747 fps=6.4 q=24.8 size=N/A time=00:00:14.94 bitrate=N/A    frame=  751 fps=6.4 q=24.8 size=N/A time=00:00:15.02 bitrate=N/A    frame=  755 fps=6.4 q=24.8 size=N/A time=00:00:15.10 bitrate=N/A    frame=  759 fps=6.4 q=24.8 size=N/A time=00:00:15.18 bitrate=N/A    frame=  763 fps=6.4 q=24.8 size=N/A time=00:00:15.26 bitrate=N/A    frame=  767 fps=6.4 q=24.8 size=N/A time=00:00:15.34 bitrate=N/A    frame=  771 fps=6.5 q=24.8 size=N/A time=00:00:15.42 bitrate=N/A    frame=  775 fps=6.5 q=24.8 size=N/A time=00:00:15.50 bitrate=N/A    frame=  779 fps=6.5 q=24.8 size=N/A time=00:00:15.58 bitrate=N/A    frame=  782 fps=6.5 q=24.8 size=N/A time=00:00:15.64 bitrate=N/A    frame=  786 fps=6.5 q=24.8 size=N/A time=00:00:15.72 bitrate=N/A    frame=  790 fps=6.5 q=24.8 size=N/A time=00:00:15.80 bitrate=N/A    frame=  794 fps=6.5 q=24.8 size=N/A time=00:00:15.88 bitrate=N/A    frame=  797 fps=6.5 q=24.8 size=N/A time=00:00:15.94 bitrate=N/A    frame=  801 fps=6.5 q=24.8 size=N/A time=00:00:16.02 bitrate=N/A    frame=  805 fps=6.5 q=24.8 size=N/A time=00:00:16.10 bitrate=N/A    frame=  808 fps=6.5 q=24.8 size=N/A time=00:00:16.16 bitrate=N/A    frame=  811 fps=6.5 q=24.8 size=N/A time=00:00:16.22 bitrate=N/A    frame=  815 fps=6.5 q=24.8 size=N/A time=00:00:16.30 bitrate=N/A    frame=  819 fps=6.5 q=24.8 size=N/A time=00:00:16.38 bitrate=N/A    frame=  822 fps=6.5 q=24.8 size=N/A time=00:00:16.44 bitrate=N/A    frame=  826 fps=6.5 q=24.8 size=N/A time=00:00:16.52 bitrate=N/A    frame=  830 fps=6.5 q=24.8 size=N/A time=00:00:16.60 bitrate=N/A    frame=  834 fps=6.5 q=24.8 size=N/A time=00:00:16.68 bitrate=N/A    frame=  839 fps=6.5 q=24.8 size=N/A time=00:00:16.78 bitrate=N/A    frame=  843 fps=6.5 q=24.8 size=N/A time=00:00:16.86 bitrate=N/A    frame=  847 fps=6.5 q=24.8 size=N/A time=00:00:16.94 bitrate=N/A    frame=  851 fps=6.5 q=24.8 size=N/A time=00:00:17.02 bitrate=N/A    frame=  855 fps=6.5 q=24.8 size=N/A time=00:00:17.10 bitrate=N/A    frame=  858 fps=6.5 q=24.8 size=N/A time=00:00:17.16 bitrate=N/A    frame=  862 fps=6.5 q=24.8 size=N/A time=00:00:17.24 bitrate=N/A    frame=  866 fps=6.5 q=24.8 size=N/A time=00:00:17.32 bitrate=N/A    frame=  870 fps=6.5 q=24.8 size=N/A time=00:00:17.40 bitrate=N/A    frame=  873 fps=6.5 q=24.8 size=N/A time=00:00:17.46 bitrate=N/A    frame=  878 fps=6.5 q=24.8 size=N/A time=00:00:17.56 bitrate=N/A    frame=  883 fps=6.5 q=24.8 size=N/A time=00:00:17.66 bitrate=N/A    frame=  887 fps=6.5 q=24.8 size=N/A time=00:00:17.74 bitrate=N/A    frame=  891 fps=6.5 q=24.8 size=N/A time=00:00:17.82 bitrate=N/A    frame=  895 fps=6.5 q=24.8 size=N/A time=00:00:17.90 bitrate=N/A    frame=  900 fps=6.5 q=24.8 size=N/A time=00:00:18.00 bitrate=N/A    frame=  903 fps=6.5 q=24.8 size=N/A time=00:00:18.06 bitrate=N/A    frame=  907 fps=6.5 q=24.8 size=N/A time=00:00:18.14 bitrate=N/A    frame=  911 fps=6.5 q=24.8 size=N/A time=00:00:18.22 bitrate=N/A    frame=  915 fps=6.5 q=24.8 size=N/A time=00:00:18.30 bitrate=N/A    frame=  919 fps=6.5 q=24.8 size=N/A time=00:00:18.38 bitrate=N/A    frame=  923 fps=6.5 q=24.8 size=N/A time=00:00:18.46 bitrate=N/A    frame=  927 fps=6.5 q=24.8 size=N/A time=00:00:18.54 bitrate=N/A    frame=  930 fps=6.5 q=24.8 size=N/A time=00:00:18.60 bitrate=N/A    frame=  934 fps=6.5 q=24.8 size=N/A time=00:00:18.68 bitrate=N/A    frame=  937 fps=6.5 q=24.8 size=N/A time=00:00:18.74 bitrate=N/A    frame=  941 fps=6.5 q=24.8 size=N/A time=00:00:18.82 bitrate=N/A    frame=  946 fps=6.5 q=24.8 size=N/A time=00:00:18.92 bitrate=N/A    frame=  950 fps=6.5 q=24.8 size=N/A time=00:00:19.00 bitrate=N/A    frame=  954 fps=6.5 q=24.8 size=N/A time=00:00:19.08 bitrate=N/A    frame=  958 fps=6.5 q=24.8 size=N/A time=00:00:19.16 bitrate=N/A    frame=  962 fps=6.5 q=24.8 size=N/A time=00:00:19.24 bitrate=N/A    frame=  966 fps=6.5 q=24.8 size=N/A time=00:00:19.32 bitrate=N/A    frame=  969 fps=6.5 q=24.8 size=N/A time=00:00:19.38 bitrate=N/A    frame=  973 fps=6.5 q=24.8 size=N/A time=00:00:19.46 bitrate=N/A    frame=  976 fps=6.5 q=24.8 size=N/A time=00:00:19.52 bitrate=N/A    frame=  981 fps=6.5 q=24.8 size=N/A time=00:00:19.62 bitrate=N/A    frame=  985 fps=6.5 q=24.8 size=N/A time=00:00:19.70 bitrate=N/A    frame=  989 fps=6.5 q=24.8 size=N/A time=00:00:19.78 bitrate=N/A    frame=  992 fps=6.5 q=24.8 size=N/A time=00:00:19.84 bitrate=N/A    frame=  996 fps=6.5 q=24.8 size=N/A time=00:00:19.92 bitrate=N/A    frame= 1000 fps=6.5 q=24.8 size=N/A time=00:00:20.00 bitrate=N/A    frame= 1004 fps=6.5 q=24.8 size=N/A time=00:00:20.08 bitrate=N/A    frame= 1008 fps=6.5 q=24.8 size=N/A time=00:00:20.16 bitrate=N/A    frame= 1012 fps=6.5 q=24.8 size=N/A time=00:00:20.24 bitrate=N/A    frame= 1016 fps=6.5 q=24.8 size=N/A time=00:00:20.32 bitrate=N/A    frame= 1019 fps=6.5 q=24.8 size=N/A time=00:00:20.38 bitrate=N/A    frame= 1022 fps=6.5 q=24.8 size=N/A time=00:00:20.44 bitrate=N/A    frame= 1026 fps=6.5 q=24.8 size=N/A time=00:00:20.52 bitrate=N/A    frame= 1030 fps=6.5 q=24.8 size=N/A time=00:00:20.60 bitrate=N/A    frame= 1034 fps=6.5 q=24.8 size=N/A time=00:00:20.68 bitrate=N/A    frame= 1038 fps=6.5 q=24.8 size=N/A time=00:00:20.76 bitrate=N/A    frame= 1041 fps=6.5 q=24.8 Lsize=N/A time=00:00:20.82 bitrate=N/A    
video:1004023kB audio:0kB subtitle:0kB other streams:0kB global headers:0kB muxing overhead: unknown
+ turkic load DJI_0025_30m_szeldontes_vadvalto_arpa_homokmegy_20180603_napos_kalaszos_T4 /home/horvathandras/vatic/vatic/videos/DJI_0025_30m_szeldontes_vadvalto_arpa_homokmegy_20180603_napos_kalaszos_T4 $'Pozit\303\255vROI' $'Negat\303\255vROI' $'T\303\272r\303\241s' '~Friss' '~1-2Hetes' '~Régebbi' '~Egyéb1' '~Egyéb2' '~Egyéb3' $'R\303\241g\303\241s' '~Friss' '~1-2Hetes' '~Régebbi' '~Egyéb1' '~Egyéb2' '~Egyéb3' $'T\303\266r\303\251s' '~Friss' '~1-2Hetes' '~Régebbi' '~Egyéb1' '~Egyéb2' '~Egyéb3' $'Tapos\303\241s' '~Friss' '~1-2Hetes' '~Régebbi' '~Egyéb1' '~Egyéb2' '~Egyéb3' $'Eg\303\251szs\303\251gesN\303\266v\303\251ny' $'Egy\303\251b1' $'Egy\303\251b2' $'Egy\303\251b3' $'Egy\303\251b4' $'Egy\303\251b5' Bizonytalan $'M\305\261vel\305\221\303\272t' $'Gktapos\303\241s' $'Vet\305\221hiba' $'Sz\303\251ld\303\266nt\303\251s' $'J\303\251gk\303\241r' $'Belv\303\255z' $'Asz\303\241ly' $'Er\303\263zi\303\263' $'Egyszik\305\261Gyom' $'K\303\251tszik\305\261Gyom' $'Egy\303\251bN\303\266vv\303\251delmiPR' --offline --title '$filenameNoDot Video' --length 1000 --description 'vatic annotation'
+ turkic publish --offline
+ mkdir /home/horvathandras/vatic/vatic/public/videothumbnails/DJI_0025_30m_szeldontes_vadvalto_arpa_homokmegy_20180603_napos_kalaszos_T4
+ cp /home/horvathandras/vatic/vatic/videos/DJI_0025_30m_szeldontes_vadvalto_arpa_homokmegy_20180603_napos_kalaszos_T4/0/0/31.jpg /home/horvathandras/vatic/vatic/public/videothumbnails/DJI_0025_30m_szeldontes_vadvalto_arpa_homokmegy_20180603_napos_kalaszos_T4/thumb.jpg
